<svg width="20" height="20" viewBox="0 0 20 20" fill="none" xmlns="http://www.w3.org/2000/svg">
<path d="M20 15.1563C20 12.8575 18.3981 10.9341 16.25 10.438C15.8983 10.3569 15.5326 10.3125 15.1562 10.3125C15.0511 10.3125 14.9472 10.317 14.8437 10.3236C12.4964 10.4733 10.6044 12.2939 10.3441 14.6094C10.3239 14.7889 10.3125 14.9713 10.3125 15.1563C10.3125 15.5047 10.3501 15.8442 10.42 16.1719C10.8869 18.3592 12.8295 20 15.1562 20C17.8314 20 20 17.8314 20 15.1563ZM15.1562 18.3594C13.3872 18.3594 11.9531 16.9253 11.9531 15.1563C11.9531 13.3872 13.3872 11.9531 15.1562 11.9531C16.9253 11.9531 18.3594 13.3872 18.3594 15.1563C18.3594 16.9253 16.9253 18.3594 15.1562 18.3594Z" fill="#E37425"/>
<path d="M15.7812 12.9688H14.6875V14.6875H12.9688V15.7812H15.7812V14.6875V12.9688Z" fill="#E37425"/>
<path d="M3.59374 0C3.29217 0 3.04688 0.245327 3.04688 0.546863V1.79686V3.125C3.04688 3.42657 3.29217 3.67187 3.59374 3.67187H4.0625C4.36407 3.67187 4.60936 3.42654 4.60936 3.125V1.79686V0.546863C4.60936 0.245327 4.36407 0 4.06246 0H3.59374Z" fill="#E37425"/>
<path d="M12.1875 0C11.8859 0 11.6406 0.245327 11.6406 0.546863V1.79686V3.125C11.6406 3.42657 11.886 3.67187 12.1875 3.67187H12.6562C12.9578 3.67187 13.2031 3.42654 13.2031 3.125V1.79686V0.546863C13.2031 0.245327 12.9578 0 12.6562 0H12.1875Z" fill="#E37425"/>
<path d="M1.25 16.1719H8.98439C8.90814 15.7928 8.86765 15.4011 8.86765 15C8.86765 14.8686 8.87344 14.7386 8.88187 14.6094H2.34376C1.82595 14.6094 1.40624 14.1897 1.40624 13.6719V6.17188H14.8438V9.0708C14.9472 9.06548 15.0514 9.06253 15.1563 9.06253C15.53 9.06253 15.8951 9.09878 16.25 9.16518V3.04688C16.25 2.35655 15.6903 1.79688 15 1.79688H13.9844V3.12501C13.9844 3.85737 13.3886 4.45315 12.6563 4.45315H12.1875C11.4551 4.45315 10.8594 3.85737 10.8594 3.12501V1.79688H5.39063V3.12501C5.39063 3.85737 4.79484 4.45315 4.06249 4.45315H3.59373C2.86138 4.45315 2.26559 3.85737 2.26559 3.12501V1.79688H1.25C0.559674 1.79688 0 2.35658 0 3.04688V14.9219C0 15.6122 0.559674 16.1719 1.25 16.1719Z" fill="#E37425"/>
<path d="M4.40439 9.75605C5.0894 9.75605 5.64472 9.20073 5.64472 8.51572C5.64472 7.8307 5.0894 7.27539 4.40439 7.27539C3.71938 7.27539 3.16406 7.8307 3.16406 8.51572C3.16406 9.20073 3.71938 9.75605 4.40439 9.75605Z" fill="#E37425"/>
<path d="M8.12509 9.75605C8.81011 9.75605 9.36542 9.20073 9.36542 8.51572C9.36542 7.8307 8.81011 7.27539 8.12509 7.27539C7.44008 7.27539 6.88477 7.8307 6.88477 8.51572C6.88477 9.20073 7.44008 9.75605 8.12509 9.75605Z" fill="#E37425"/>
<path d="M11.8456 9.75605C12.5306 9.75605 13.0859 9.20073 13.0859 8.51572C13.0859 7.8307 12.5306 7.27539 11.8456 7.27539C11.1605 7.27539 10.6052 7.8307 10.6052 8.51572C10.6052 9.20073 11.1605 9.75605 11.8456 9.75605Z" fill="#E37425"/>
<path d="M8.12506 13.506C8.81006 13.506 9.36536 12.9507 9.36536 12.2657C9.36536 11.5807 8.81006 11.0254 8.12506 11.0254C7.44006 11.0254 6.88477 11.5807 6.88477 12.2657C6.88477 12.9507 7.44006 13.506 8.12506 13.506Z" fill="#E37425"/>
<path d="M4.40436 13.506C5.08935 13.506 5.64465 12.9507 5.64465 12.2657C5.64465 11.5807 5.08935 11.0254 4.40436 11.0254C3.71936 11.0254 3.16406 11.5807 3.16406 12.2657C3.16406 12.9507 3.71936 13.506 4.40436 13.506Z" fill="#E37425"/>
</svg>
