<svg width="128" height="129" viewBox="0 0 128 129" fill="none" xmlns="http://www.w3.org/2000/svg">
<path d="M83.7555 34.2016H62.4647C61.9986 34.203 61.5383 34.0981 61.1189 33.8948C60.6994 33.6915 60.3319 33.3953 60.0442 33.0285C59.7513 32.6584 59.5467 32.2262 59.446 31.765C59.3453 31.3039 59.3511 30.8258 59.4631 30.3672C61.4253 22.1482 61.4253 13.5827 59.4629 5.36366C59.3511 4.90509 59.3453 4.42703 59.446 3.96588C59.5467 3.50472 59.7513 3.07261 60.0441 2.70243C60.3318 2.33568 60.6994 2.0394 61.1188 1.83612C61.5383 1.63284 61.9986 1.52792 62.4647 1.52936H83.7555C84.4906 1.53147 85.201 1.79444 85.7604 2.27144C86.3197 2.74843 86.6915 3.40848 86.8096 4.13402C88.2109 13.2347 88.2109 22.4963 86.8096 31.5969C86.6915 32.3225 86.3197 32.9825 85.7604 33.4595C85.201 33.9365 84.4906 34.1995 83.7555 34.2016Z" fill="#E6E6E6"/>
<path d="M62.4645 3.13134C62.2407 3.13059 62.0196 3.1809 61.8181 3.27845C61.6167 3.376 61.4401 3.51821 61.3019 3.69428C61.1595 3.87467 61.0602 4.08515 61.0115 4.30971C60.9627 4.53426 60.9658 4.76698 61.0205 4.99015C63.0415 13.4547 63.0415 22.2762 61.0207 30.7408C60.9659 30.9639 60.9627 31.1966 61.0115 31.4211C61.0602 31.6456 61.1595 31.8561 61.3018 32.0364L61.3019 32.0366C61.4401 32.2127 61.6167 32.3549 61.8181 32.4525C62.0196 32.5501 62.2407 32.6004 62.4645 32.5996H83.7553C84.1083 32.5997 84.4499 32.4746 84.7192 32.2464C84.9886 32.0182 85.1682 31.7018 85.2261 31.3535C86.6024 22.4142 86.6024 13.3168 85.2261 4.37741C85.1682 4.02917 84.9886 3.71279 84.7192 3.48459C84.4499 3.2564 84.1083 3.13122 83.7553 3.13134L62.4645 3.13134Z" fill="white"/>
<path d="M79.1094 10.8344H67.9369C67.5122 10.834 67.105 10.665 66.8047 10.3647C66.5043 10.0644 66.3354 9.65721 66.335 9.2325V8.60649C66.3354 8.18177 66.5043 7.77459 66.8047 7.47427C67.105 7.17395 67.5122 7.00503 67.9369 7.00456H79.1094C79.5341 7.00503 79.9413 7.17395 80.2416 7.47427C80.5419 7.77459 80.7109 8.18177 80.7113 8.60649V9.23251C80.7109 9.65722 80.5419 10.0644 80.2416 10.3647C79.9413 10.665 79.5341 10.834 79.1094 10.8344Z" fill="#E6E6E6"/>
<path d="M79.1094 18.7444H67.9369C67.5122 18.744 67.105 18.575 66.8047 18.2747C66.5043 17.9744 66.3354 17.5672 66.335 17.1425V16.5165C66.3354 16.0918 66.5043 15.6846 66.8047 15.3843C67.105 15.0839 67.5122 14.915 67.9369 14.9146H79.1094C79.5341 14.915 79.9413 15.0839 80.2416 15.3843C80.5419 15.6846 80.7109 16.0918 80.7113 16.5165V17.1425C80.7109 17.5672 80.5419 17.9744 80.2416 18.2747C79.9413 18.575 79.5341 18.744 79.1094 18.7444Z" fill="#E6E6E6"/>
<path d="M79.1094 26.6544H67.9369C67.5122 26.654 67.105 26.485 66.8047 26.1847C66.5043 25.8844 66.3354 25.4772 66.335 25.0525V24.4265C66.3354 24.0018 66.5043 23.5946 66.8047 23.2943C67.105 22.994 67.5122 22.825 67.9369 22.8246H79.1094C79.5341 22.825 79.9413 22.994 80.2416 23.2943C80.5419 23.5946 80.7109 24.0018 80.7113 24.4265V25.0525C80.7109 25.4772 80.5419 25.8844 80.2416 26.1847C79.9413 26.485 79.5341 26.654 79.1094 26.6544Z" fill="#E6E6E6"/>
<path d="M123.805 54.4934H102.515C102.048 54.4948 101.588 54.3899 101.169 54.1866C100.749 53.9834 100.382 53.6871 100.094 53.3204C99.8011 52.9502 99.5965 52.518 99.4958 52.0569C99.3951 51.5957 99.4009 51.1176 99.5129 50.659C101.475 42.44 101.475 33.8745 99.5127 25.6555C99.4009 25.1969 99.3951 24.7188 99.4958 24.2577C99.5965 23.7965 99.8011 23.3644 100.094 22.9942C100.382 22.6275 100.749 22.3312 101.169 22.1279C101.588 21.9246 102.048 21.8197 102.515 21.8212H123.805C124.54 21.8233 125.251 22.0863 125.81 22.5632C126.369 23.0402 126.741 23.7003 126.859 24.4258C128.261 33.5265 128.261 42.7881 126.859 51.8888C126.741 52.6143 126.369 53.2743 125.81 53.7513C125.251 54.2283 124.54 54.4913 123.805 54.4934Z" fill="#E6E6E6"/>
<path d="M102.514 23.4232C102.29 23.4224 102.069 23.4727 101.868 23.5703C101.666 23.6678 101.49 23.81 101.352 23.9861C101.209 24.1665 101.11 24.377 101.061 24.6015C101.013 24.8261 101.016 25.0588 101.07 25.282C103.091 33.7466 103.091 42.568 101.07 51.0326C101.016 51.2558 101.013 51.4884 101.061 51.7129C101.11 51.9375 101.209 52.1479 101.352 52.3283L101.352 52.3284C101.49 52.5045 101.666 52.6467 101.868 52.7443C102.069 52.8419 102.29 52.8922 102.514 52.8914H123.805C124.158 52.8916 124.5 52.7664 124.769 52.5382C125.038 52.31 125.218 51.9936 125.276 51.6454C126.652 42.706 126.652 33.6086 125.276 24.6692C125.218 24.321 125.038 24.0046 124.769 23.7764C124.5 23.5482 124.158 23.423 123.805 23.4232L102.514 23.4232Z" fill="white"/>
<path d="M81.3524 77.5887H60.0616C59.5753 77.5902 59.0951 77.4807 58.6575 77.2686C58.2199 77.0565 57.8365 76.7474 57.5363 76.3648C57.2309 75.9788 57.0175 75.5282 56.9125 75.0473C56.8074 74.5664 56.8135 74.0678 56.9302 73.5896C58.8875 65.3911 58.8875 56.8469 56.9301 48.6484C56.8134 48.1702 56.8074 47.6717 56.9124 47.1908C57.0175 46.71 57.2308 46.2594 57.5362 45.8734C57.8364 45.4908 58.2199 45.1816 58.6575 44.9696C59.0951 44.7575 59.5753 44.648 60.0616 44.6495H81.3524C82.1193 44.6517 82.8605 44.9262 83.444 45.4239C84.0275 45.9216 84.4154 46.6103 84.5385 47.3673C85.9418 56.4814 85.9418 65.7567 84.5385 74.8709C84.4154 75.6279 84.0275 76.3165 83.444 76.8143C82.8605 77.312 82.1193 77.5864 81.3524 77.5887Z" fill="#F2F2F2"/>
<path d="M119.159 35.1312H107.986C107.561 35.1307 107.154 34.9618 106.854 34.6615C106.554 34.3612 106.385 33.954 106.384 33.5293V32.9033C106.385 32.4786 106.554 32.0714 106.854 31.7711C107.154 31.4707 107.561 31.3018 107.986 31.3013H119.159C119.583 31.3018 119.991 31.4707 120.291 31.7711C120.591 32.0714 120.76 32.4786 120.761 32.9033V33.5293C120.76 33.954 120.591 34.3612 120.291 34.6615C119.991 34.9618 119.583 35.1307 119.159 35.1312Z" fill="#E6E6E6"/>
<path d="M119.159 43.0412H107.986C107.561 43.0407 107.154 42.8718 106.854 42.5715C106.554 42.2712 106.385 41.864 106.384 41.4393V40.8133C106.385 40.3885 106.554 39.9814 106.854 39.681C107.154 39.3807 107.561 39.2118 107.986 39.2113H119.159C119.583 39.2118 119.991 39.3807 120.291 39.681C120.591 39.9814 120.76 40.3885 120.761 40.8133V41.4393C120.76 41.864 120.591 42.2712 120.291 42.5715C119.991 42.8718 119.583 43.0407 119.159 43.0412Z" fill="#E6E6E6"/>
<path d="M78.5096 4.53896H67.2957C66.9772 4.5386 66.6718 4.4119 66.4465 4.18665C66.2213 3.96141 66.0946 3.65601 66.0942 3.33747V1.20149C66.0946 0.882944 66.2213 0.577549 66.4465 0.352304C66.6718 0.127059 66.9772 0.000358994 67.2957 0H78.5096C78.8282 0.000358994 79.1336 0.127059 79.3588 0.352304C79.584 0.577549 79.7107 0.882944 79.7111 1.20149V3.33747C79.7107 3.65601 79.584 3.96141 79.3588 4.18665C79.1336 4.4119 78.8282 4.5386 78.5096 4.53896Z" fill="#CCCCCC"/>
<path d="M119.093 25.0978H107.879C107.561 25.0974 107.255 24.9707 107.03 24.7455C106.805 24.5202 106.678 24.2148 106.678 23.8963V21.7603C106.678 21.4418 106.805 21.1364 107.03 20.9111C107.255 20.6859 107.561 20.5592 107.879 20.5588H119.093C119.412 20.5592 119.717 20.6859 119.942 20.9111C120.168 21.1364 120.294 21.4418 120.295 21.7603V23.8963C120.294 24.2148 120.168 24.5202 119.942 24.7455C119.717 24.9707 119.412 25.0974 119.093 25.0978Z" fill="#CCCCCC"/>
<path d="M21.8487 125.772H25.1221L26.1455 113.146H21.8481L21.8487 125.772Z" fill="#FFB8B8"/>
<path d="M21.0142 124.703L27.4605 124.703H27.4608C28.0003 124.703 28.5345 124.809 29.0329 125.016C29.5313 125.222 29.9842 125.525 30.3657 125.906C30.7472 126.288 31.0498 126.741 31.2562 127.239C31.4627 127.738 31.5689 128.272 31.5689 128.811V128.945L21.0144 128.945L21.0142 124.703Z" fill="#2F2E41"/>
<path d="M4.2271 125.772H7.50049L9.05788 113.146H4.22656L4.2271 125.772Z" fill="#FFB8B8"/>
<path d="M3.39209 124.703L9.83842 124.703H9.83869C10.3782 124.703 10.9124 124.809 11.4108 125.016C11.9092 125.222 12.3621 125.525 12.7436 125.906C13.1251 126.288 13.4277 126.741 13.6341 127.239C13.8406 127.738 13.9468 128.272 13.9468 128.811V128.945L3.39229 128.945L3.39209 124.703Z" fill="#2F2E41"/>
<path d="M4.80735 121.784C4.47345 121.784 4.15178 121.658 3.90624 121.432C3.77443 121.311 3.66828 121.166 3.59415 121.003C3.52002 120.841 3.47944 120.666 3.47484 120.487L2.16211 73.4386L20.8015 78.0983L26.5525 95.3511C27.2941 97.5705 27.6152 99.9089 27.4991 102.246L26.785 118.97C26.7687 119.313 26.6211 119.636 26.3728 119.872C26.1245 120.109 25.7945 120.241 25.4515 120.241H22.3253C22.0026 120.239 21.6912 120.122 21.4482 119.909C21.2052 119.697 21.0469 119.404 21.0023 119.085L18.7679 100.624C18.5726 99.1837 18.0688 97.8027 17.2909 96.5751L12.8936 89.6129C12.8642 89.5664 12.8211 89.5301 12.7703 89.509C12.7195 89.4879 12.6634 89.483 12.6097 89.4949C12.556 89.5069 12.5074 89.5352 12.4703 89.5759C12.4333 89.6166 12.4098 89.6678 12.403 89.7224L8.95212 120.451C8.91507 120.762 8.76926 121.051 8.54035 121.266C8.31144 121.48 8.0141 121.607 7.70071 121.625L4.88335 121.781C4.858 121.783 4.83271 121.784 4.80735 121.784Z" fill="#2F2E41"/>
<path d="M17.6998 42.9778C21.3216 42.9778 24.2576 40.0418 24.2576 36.4201C24.2576 32.7983 21.3216 29.8624 17.6998 29.8624C14.0781 29.8624 11.1421 32.7983 11.1421 36.4201C11.1421 40.0418 14.0781 42.9778 17.6998 42.9778Z" fill="#FFB8B8"/>
<path d="M20.7125 80.0118C20.5997 80.0116 20.4873 79.9973 20.378 79.9692H20.3778L1.88438 75.2274C1.55374 75.1428 1.2681 74.9346 1.0862 74.6458C0.904296 74.357 0.83995 74.0095 0.906401 73.6747L5.15357 50.7955C5.41818 49.473 5.99981 48.2344 6.84852 47.1862C7.69723 46.138 8.78767 45.3114 10.0262 44.7775C11.233 44.2434 12.5527 44.0145 13.8689 44.1112C15.1851 44.2078 16.4572 44.6269 17.5731 45.3315C17.832 45.4931 18.0928 45.6692 18.348 45.8551C19.3757 46.6132 20.2137 47.599 20.7964 48.7353C21.3791 49.8716 21.6907 51.1275 21.7066 52.4044L22.0443 78.6579C22.0466 78.8344 22.0138 79.0097 21.948 79.1735C21.8821 79.3374 21.7845 79.4865 21.6606 79.6124C21.5368 79.7383 21.3892 79.8384 21.2265 79.907C21.0638 79.9755 20.8891 80.0111 20.7125 80.0118Z" fill="#6C63FF"/>
<path d="M3.78695 80.2808C3.56634 79.9562 3.4196 79.5871 3.35705 79.1996C3.29451 78.8121 3.3177 78.4156 3.42497 78.0381C3.53224 77.6605 3.72099 77.311 3.97792 77.0143C4.23486 76.7176 4.55373 76.4808 4.91208 76.3206L4.08951 66.815L8.44852 69.1776L8.56135 77.842C8.79052 78.4619 8.78435 79.1442 8.54402 79.7598C8.3037 80.3754 7.8459 80.8814 7.25739 81.1821C6.66889 81.4827 5.99055 81.557 5.35093 81.3909C4.71131 81.2248 4.15483 80.8298 3.78696 80.2808H3.78695Z" fill="#FFB8B8"/>
<path d="M5.34468 75.0635C5.22168 75.0633 5.09919 75.0478 4.98003 75.0173C4.72375 74.9519 4.4899 74.8185 4.30322 74.6312C4.11654 74.4438 3.98397 74.2095 3.91954 73.953L1.77737 65.4401C1.02874 62.4669 1.38561 59.3229 2.78161 56.5932L7.26953 47.8138C7.55322 46.7627 8.23869 45.8651 9.17811 45.3148C10.1175 44.7644 11.2356 44.6054 12.2912 44.8719C12.8174 45.0047 13.3119 45.2407 13.7462 45.5662C14.1804 45.8916 14.5458 46.3 14.821 46.7677C15.1019 47.2421 15.2856 47.7676 15.3614 48.3137C15.4372 48.8598 15.4037 49.4155 15.2626 49.9485L8.87405 64.2344L8.94993 72.7878C8.95189 73.0896 8.86116 73.3847 8.69 73.6332C8.51884 73.8817 8.27551 74.0717 7.99288 74.1775L5.85495 74.9714C5.69169 75.0322 5.51889 75.0634 5.34468 75.0635Z" fill="#6C63FF"/>
<path d="M35.9253 76.7844C35.5353 76.7398 35.1599 76.6103 34.8254 76.4049C34.4909 76.1995 34.2055 75.9233 33.9893 75.5957C33.7731 75.2681 33.6313 74.8971 33.5741 74.5088C33.5168 74.1205 33.5453 73.7243 33.6577 73.3483L25.9165 67.7709L30.5507 66.0082L37.1913 71.5748C37.8106 71.8055 38.3238 72.2553 38.6336 72.839C38.9434 73.4227 39.0283 74.0998 38.8722 74.7419C38.7162 75.3841 38.33 75.9467 37.7868 76.3231C37.2437 76.6996 36.5813 76.8637 35.9253 76.7844H35.9253Z" fill="#FFB8B8"/>
<path d="M31.8725 72.7116C31.6443 72.7114 31.4192 72.6583 31.215 72.5563L23.3655 68.6268C20.6238 67.2545 18.4737 64.9333 17.3152 62.0946L13.5886 52.9659C12.977 52.0651 12.744 50.96 12.9397 49.889C13.1353 48.818 13.7441 47.8667 14.6346 47.2403C15.0796 46.9274 15.5824 46.7063 16.1137 46.5897C16.6449 46.4731 17.1941 46.4634 17.7292 46.5612C18.2706 46.6586 18.7872 46.8624 19.2492 47.1608C19.7113 47.4593 20.1095 47.8465 20.4208 48.3L27.081 62.4614L33.6133 67.9836C33.8434 68.1789 34.0079 68.4402 34.0846 68.732C34.1613 69.0239 34.1466 69.3322 34.0423 69.6154L33.2494 71.7536C33.1459 72.034 32.9589 72.276 32.7136 72.4468C32.467 72.6192 32.1734 72.7116 31.8725 72.7116Z" fill="#6C63FF"/>
<path d="M16.3229 43.0782C16.6713 43.2307 17.3849 40.4543 17.0652 39.8991C16.5899 39.0733 16.618 39.0792 16.3025 38.5328C15.9869 37.9865 15.9163 37.2387 16.3249 36.7579C16.7336 36.2772 17.6792 36.341 17.8656 36.9437C17.7457 35.7989 18.8781 34.8786 19.9998 34.62C21.1214 34.3614 22.3046 34.522 23.4324 34.2918C24.7414 34.0247 26.1033 32.9275 25.581 31.4882C25.4914 31.2485 25.3572 31.028 25.1856 30.8383C24.5822 30.1598 23.7381 29.8701 22.9129 29.5901C21.1961 29.0073 19.4323 28.4173 17.6205 28.4816C16.1276 28.5597 14.6898 29.0713 13.4831 29.9537C12.2765 30.8362 11.3532 32.0512 10.8263 33.4503C10.7015 33.8002 10.6047 34.1596 10.5371 34.525C9.91516 37.869 11.857 41.1674 15.0109 42.4407L16.3229 43.0782Z" fill="#2F2E41"/>
<path opacity="0.2" d="M8.58008 72.9819L8.7288 64.1899L13.386 54.8261L9.64807 64.438L8.58008 72.9819Z" fill="black"/>
<path d="M50.8131 95.0464L31.1518 86.8775C30.7208 86.7 30.336 86.4265 30.0267 86.0778C29.7173 85.7292 29.4916 85.3145 29.3666 84.8655C29.2382 84.4113 29.215 83.9337 29.299 83.4692C29.3829 83.0046 29.5718 82.5654 29.8511 82.1848C34.8167 75.3478 38.1031 67.4378 39.4444 59.0949C39.5171 58.6285 39.6951 58.1849 39.9651 57.7976C40.235 57.4104 40.5897 57.0899 41.0022 56.8604C41.4086 56.6321 41.8617 56.4995 42.3271 56.4727C42.7924 56.4459 43.2577 56.5257 43.6876 56.7058L63.3489 64.8748C64.0269 65.1588 64.5821 65.6742 64.9156 66.3293C65.2491 66.9844 65.3392 67.7366 65.17 68.4519C62.9721 77.3937 59.4186 85.9464 54.6329 93.8129C54.2454 94.4376 53.6488 94.9045 52.9492 95.1304C52.2497 95.3563 51.4927 95.3265 50.8131 95.0464Z" fill="#E6E6E6"/>
<path d="M43.0731 58.1852C42.8667 58.0986 42.6433 58.0603 42.4198 58.073C42.1963 58.0858 41.9787 58.1494 41.7835 58.259C41.5828 58.3709 41.4104 58.5272 41.2792 58.7159C41.148 58.9045 41.0616 59.1206 41.0265 59.3477C39.645 67.9399 36.2604 76.0862 31.1465 83.1276C31.0103 83.3126 30.9181 83.5263 30.877 83.7523C30.8358 83.9783 30.8468 84.2107 30.909 84.4319L30.9091 84.4321C30.9691 84.6477 31.0776 84.8468 31.2262 85.0142C31.3748 85.1816 31.5596 85.3129 31.7666 85.3981L51.4279 93.567C51.7538 93.7026 52.1173 93.7181 52.4536 93.6107C52.7899 93.5033 53.0772 93.28 53.2643 92.9807C57.9651 85.2535 61.4556 76.8524 63.6146 68.0692C63.6947 67.7254 63.6502 67.3643 63.4891 67.0502C63.3279 66.7361 63.0604 66.4895 62.7344 66.3541L43.0731 58.1852Z" fill="white"/>
<path d="M53.541 76.3697L43.2236 72.083C42.8315 71.9196 42.5203 71.6074 42.3582 71.2148C42.1961 70.8222 42.1964 70.3814 42.3589 69.989L42.5991 69.4109C42.7625 69.0189 43.0747 68.7077 43.4672 68.5456C43.8598 68.3835 44.3006 68.3837 44.693 68.5462L55.0104 72.8329C55.4025 72.9963 55.7137 73.3086 55.8758 73.7011C56.0379 74.0937 56.0377 74.5345 55.8751 74.9269L55.6349 75.505C55.4715 75.897 55.1593 76.2082 54.7668 76.3703C54.3742 76.5324 53.9334 76.5322 53.541 76.3697Z" fill="#E6E6E6"/>
<path d="M50.5068 83.6743L40.1894 79.3876C39.7974 79.2242 39.4862 78.912 39.324 78.5194C39.1619 78.1269 39.1622 77.686 39.3247 77.2936L39.5649 76.7155C39.7283 76.3235 40.0405 76.0123 40.4331 75.8502C40.8256 75.6881 41.2665 75.6883 41.6588 75.8508L51.9763 80.1376C52.3683 80.3009 52.6795 80.6132 52.8416 81.0057C53.0037 81.3983 53.0035 81.8391 52.841 82.2315L52.6008 82.8096C52.4374 83.2016 52.1252 83.5129 51.7326 83.675C51.34 83.8371 50.8992 83.8368 50.5068 83.6743Z" fill="#E6E6E6"/>
<path d="M57.6757 66.1038C57.5212 66.1036 57.3683 66.0737 57.2252 66.0155L46.8289 61.8122C46.5337 61.6925 46.2981 61.4606 46.1737 61.1674C46.0493 60.8741 46.0462 60.5435 46.1653 60.2481L46.9659 58.2677C47.0854 57.9724 47.3173 57.7365 47.6107 57.6121C47.904 57.4877 48.2348 57.4849 48.5302 57.6043L58.9265 61.8075C59.2217 61.9273 59.4573 62.1592 59.5817 62.4524C59.7061 62.7457 59.7091 63.0763 59.5901 63.3717L58.7894 65.352C58.6995 65.5738 58.5455 65.7638 58.3471 65.8977C58.1488 66.0315 57.915 66.1033 57.6757 66.1038Z" fill="#CCCCCC"/>
</svg>
